<svg width="582" height="582" viewBox="0 0 582 582" fill="none" xmlns="http://www.w3.org/2000/svg">
<path fill-rule="evenodd" clip-rule="evenodd" d="M361.893 436.07L352.996 418.331C352.996 416.284 289.8 384.444 280.901 377.393C274.286 371.935 284.552 358.744 297.328 360.564C304.401 361.473 320.828 371.935 324.25 369.888C327.671 367.841 317.861 348.055 317.861 348.055L289.115 284.602C288.887 282.1 289.343 279.826 290.484 277.551C291.625 275.504 293.45 273.685 295.731 272.775C298.012 271.866 300.522 271.411 302.804 272.093C305.085 272.548 307.366 273.913 308.964 275.732L324.021 308.482C324.706 305.298 326.531 302.342 329.04 300.067C331.55 297.793 334.744 296.655 337.938 296.428C340.219 296.655 342.501 297.337 344.554 298.475C346.607 299.612 348.433 300.977 350.029 302.796C350.029 302.796 362.121 286.194 374.442 301.886C381.286 295.064 387.902 291.879 396.343 296.883C414.367 340.322 428.056 358.744 423.037 378.075L434.9 404.685L361.893 436.07Z" fill="#151520"/>
<path d="M339.992 334.636L325.618 302.796" stroke="#2A2941" stroke-width="25.42" stroke-miterlimit="10" stroke-linecap="square"/>
<path d="M365.543 330.543L350.942 297.338" stroke="#2A2941" stroke-width="25.42" stroke-miterlimit="10" stroke-linecap="square"/>
<path fill-rule="evenodd" clip-rule="evenodd" d="M389.271 326.904L379.232 304.616L375.81 296.428" fill="#2A2941"/>
<path d="M389.271 326.904L379.232 304.616L375.81 296.428" stroke="#2A2941" stroke-width="25.42" stroke-miterlimit="10" stroke-linecap="square"/>
<path fill-rule="evenodd" clip-rule="evenodd" d="M194.206 177.482C213.142 170.204 233.676 168.839 253.296 173.16C272.916 177.482 290.94 187.716 304.857 202.271C318.774 216.827 328.128 235.249 331.55 255.035C334.972 274.822 332.69 295.29 324.478 313.713C316.264 332.135 303.032 347.827 285.921 358.744C268.81 369.66 248.961 375.346 228.884 374.891C208.58 374.436 188.959 368.296 172.304 356.697C155.65 345.325 142.874 329.177 135.345 310.529C125.306 285.056 125.99 256.855 136.942 231.838C148.349 207.047 168.654 187.261 194.206 177.482Z" fill="#2A2941"/>
<path fill-rule="evenodd" clip-rule="evenodd" d="M191.696 170.886C171.62 179.073 154.281 192.947 142.189 210.913C130.097 228.881 123.481 250.032 123.253 271.638C123.025 293.243 129.412 314.622 141.276 332.588C153.14 350.783 170.251 364.884 190.328 373.298C210.405 381.714 232.535 383.988 253.752 380.121C275.198 376.027 294.819 365.793 310.332 350.556C325.846 335.317 336.569 315.986 340.904 294.608C345.239 273.457 343.414 251.396 335.2 231.155C329.725 217.736 321.74 205.682 311.701 195.221C301.434 184.987 289.343 176.799 276.111 171.113C262.878 165.427 248.505 162.471 233.903 162.471C219.302 162.698 204.929 165.427 191.696 170.886ZM196.716 184.077C214.283 177.254 233.448 175.889 251.699 179.983C269.951 184.077 286.833 193.629 299.837 207.047C312.842 220.693 321.511 237.751 324.705 256.172C327.9 274.594 325.618 293.698 318.089 310.755C310.561 328.04 298.012 342.595 282.27 352.603C266.529 362.837 248.048 368.068 229.113 367.613C210.405 367.386 191.925 361.472 176.639 350.783C161.125 340.094 149.261 325.083 142.189 307.799C132.835 284.146 133.519 257.764 143.558 234.566C154.053 211.596 173.217 193.174 196.716 184.077Z" fill="#151520"/>
<path fill-rule="evenodd" clip-rule="evenodd" d="M203.56 158.378C222.496 151.1 243.258 149.508 263.106 154.056C282.955 158.605 300.979 168.612 314.895 183.395C328.812 197.95 338.394 216.372 341.817 236.386C345.467 256.4 342.957 276.868 334.744 295.29C326.53 313.94 313.07 329.632 295.959 340.549C278.848 351.465 258.999 357.152 238.695 356.924C218.389 356.697 198.541 350.329 181.886 338.729C165.232 327.13 152.228 310.983 144.699 292.334C134.66 266.862 135.344 238.433 146.296 213.188C157.475 187.943 178.007 168.384 203.56 158.378Z" fill="#3674A8"/>
<path fill-rule="evenodd" clip-rule="evenodd" d="M201.05 151.782C180.974 159.97 163.863 174.071 151.771 192.037C139.679 210.005 133.063 231.155 133.063 252.761C133.063 274.367 139.223 295.518 151.315 313.713C163.178 331.679 180.289 346.007 200.366 354.423C220.442 362.837 242.345 365.111 263.791 361.246C285.236 357.152 304.857 346.917 320.371 331.907C335.885 316.669 346.607 297.337 351.171 276.186C355.733 255.035 353.68 232.975 345.695 212.961C334.744 185.896 313.298 164.29 286.148 152.692C258.772 141.093 228.199 140.866 201.05 151.782ZM206.298 164.973C223.865 158.15 243.258 156.785 261.737 161.107C280.217 165.201 296.872 174.753 310.104 188.398C323.108 202.044 331.778 219.101 335.2 237.751C338.394 256.4 336.113 275.504 328.584 292.561C321.055 309.846 308.507 324.401 292.537 334.636C276.566 344.87 258.087 350.101 239.151 349.874C220.214 349.646 201.963 343.733 186.221 333.044C170.707 322.355 158.615 307.344 151.543 289.832C142.189 265.952 142.645 239.57 152.911 216.145C163.178 192.719 182.342 174.298 206.298 164.973Z" fill="#2A2941"/>
<path fill-rule="evenodd" clip-rule="evenodd" d="M197.856 157.468C185.309 187.944 189.415 229.792 205.385 267.09C221.356 304.389 248.961 336.911 282.727 350.102C284.095 350.557 285.693 350.557 287.062 350.102C288.43 349.42 289.571 348.51 290.027 346.918C290.255 346.235 290.483 345.553 290.483 344.871C290.483 344.189 290.255 343.506 290.027 342.824C289.8 342.142 289.343 341.459 288.658 341.005C288.202 340.55 287.518 340.095 286.833 339.868C255.805 327.814 230.481 297.338 215.88 262.768C201.278 228.199 196.944 189.764 208.58 161.79C208.807 161.108 209.035 160.426 209.035 159.743C209.035 159.061 208.807 158.379 208.58 157.697C208.351 157.014 207.895 156.332 207.438 155.877C206.982 155.422 206.298 154.967 205.613 154.739C204.245 154.285 202.648 154.285 201.278 154.739C199.453 154.967 198.313 156.104 197.856 157.468Z" fill="#2A2941"/>
<path fill-rule="evenodd" clip-rule="evenodd" d="M201.963 164.063C219.759 172.023 235.501 183.622 248.505 198.177C261.281 212.733 270.863 230.018 276.339 248.667C287.518 279.826 289.8 313.257 282.498 345.552C282.271 346.235 282.271 346.917 282.271 347.827C282.271 348.736 282.498 349.192 282.955 349.874C283.411 350.556 283.868 351.011 284.323 351.465C285.008 351.921 285.465 352.148 286.377 352.376C287.746 352.83 289.343 352.603 290.712 351.921C292.08 351.238 292.993 350.101 293.45 348.509C301.207 313.94 298.925 278.233 287.062 244.801C280.901 224.788 270.635 206.138 256.718 190.445C242.801 174.753 225.691 162.243 206.298 153.602C205.613 153.147 204.929 152.691 204.016 152.464C203.103 152.237 202.42 152.237 201.507 152.464C200.594 152.691 199.91 153.147 199.225 153.602C198.541 154.056 198.085 154.966 197.856 155.649C197.628 156.331 197.4 157.24 197.4 158.15C197.4 159.06 197.628 159.742 198.085 160.652C198.541 161.334 198.998 162.016 199.681 162.471C200.366 162.926 201.278 163.381 201.963 163.381V164.063Z" fill="#2A2941"/>
<path fill-rule="evenodd" clip-rule="evenodd" d="M208.807 349.418C225.006 331.224 245.083 317.124 267.669 308.026C290.255 298.929 314.667 295.063 338.85 296.882C340.219 296.882 341.817 296.427 342.957 295.518C344.098 294.607 344.782 293.243 345.011 291.651C345.011 290.287 344.554 288.695 343.642 287.557C342.729 286.42 341.36 285.738 339.763 285.511C313.754 283.691 287.518 287.785 263.334 297.565C239.151 307.344 217.477 322.582 200.138 342.141C199.682 342.595 199.225 343.278 198.997 343.96C198.769 344.642 198.769 345.325 198.769 346.235C198.769 346.917 198.997 347.599 199.453 348.282C199.682 348.964 200.138 349.418 200.823 350.101C201.278 350.556 201.963 351.011 202.648 351.238C203.332 351.465 204.017 351.465 204.929 351.465C205.613 351.465 206.298 351.238 206.982 350.783C207.667 350.556 208.351 350.101 208.807 349.418Z" fill="#2A2941"/>
<path fill-rule="evenodd" clip-rule="evenodd" d="M273.829 158.151C250.33 189.764 201.507 209.323 154.281 206.821C152.683 206.821 151.315 207.276 150.174 208.186C149.033 209.095 148.349 210.688 148.349 212.052C148.349 213.644 148.805 215.009 149.718 216.146C150.63 217.283 152.228 217.965 153.596 217.965C204.7 220.694 257.402 198.861 282.727 164.747C283.183 164.064 283.411 163.382 283.64 162.7C283.868 162.018 283.868 161.335 283.64 160.426C283.64 159.744 283.183 159.061 282.955 158.379C282.498 157.697 282.042 157.242 281.358 156.786C280.217 155.877 278.62 155.65 277.251 155.877C275.883 156.332 274.741 157.014 273.829 158.151Z" fill="#2A2941"/>
<path fill-rule="evenodd" clip-rule="evenodd" d="M151.315 300.521C233.219 263.904 268.126 248.667 338.622 218.418C339.535 218.191 340.22 217.964 340.904 217.509C341.589 217.054 342.045 216.371 342.501 215.689C342.957 215.007 343.185 214.097 343.185 213.188C343.185 212.278 342.957 211.595 342.729 210.686C342.501 210.004 341.817 209.321 341.132 208.639C340.447 208.184 339.763 207.729 338.85 207.502C337.938 207.275 337.254 207.275 336.341 207.502C335.428 207.729 334.744 207.957 334.06 208.411C264.019 238.433 228.428 253.898 146.752 290.514C145.839 290.742 145.154 290.969 144.471 291.651C143.786 292.106 143.329 292.788 142.874 293.471C142.417 294.153 142.189 295.062 142.189 295.745C142.189 296.655 142.417 297.337 142.645 298.247C142.874 298.929 143.558 299.611 144.014 300.294C144.699 300.749 145.383 301.203 146.296 301.431C147.208 301.658 147.893 301.658 148.806 301.431C149.946 301.203 150.631 300.976 151.315 300.521Z" fill="#2A2941"/>
<path fill-rule="evenodd" clip-rule="evenodd" d="M372.388 413.1L363.718 395.361C363.718 393.314 300.294 361.701 291.396 354.423C284.78 348.964 295.047 335.774 307.822 337.594C314.896 338.73 331.55 348.964 334.744 346.918C338.167 344.871 328.356 325.084 328.356 325.084L299.382 261.404C299.153 258.903 299.609 256.628 300.979 254.581C302.119 252.534 303.944 250.942 306.226 249.805C308.507 248.896 310.789 248.44 313.298 248.896C315.579 249.351 317.861 250.487 319.458 252.307L334.515 285.057C335.2 281.873 337.025 278.916 339.535 276.642C342.045 274.368 345.239 273.231 348.661 273.003C350.942 273.231 353.224 273.913 355.277 274.822C357.331 275.96 359.156 277.325 360.524 279.144C360.524 279.144 372.616 262.541 384.936 278.234C391.552 271.411 398.396 268.227 406.838 273.231C424.862 316.67 438.551 335.319 433.531 354.651L445.395 381.26L372.388 413.1Z" fill="#FFCA3A"/>
<path fill-rule="evenodd" clip-rule="evenodd" d="M321.511 332.589H320.599C316.948 330.77 313.07 329.633 309.191 328.723C304.857 328.041 300.294 328.495 296.187 330.088C292.08 331.68 288.202 334.182 285.236 337.365C283.411 338.958 282.043 340.776 281.13 342.823C280.217 344.87 279.761 347.145 279.761 349.419C279.761 351.693 280.217 353.968 281.13 356.015C282.043 358.062 283.411 360.109 285.236 361.473C293.222 368.069 344.326 394.223 355.961 401.274L367.597 424.926L457.715 386.035L443.341 353.741C444.71 344.87 443.798 335.773 440.376 327.359C435.812 313.485 426.459 296.201 415.507 269.819L414.367 267.09L411.857 265.497C407.294 262.541 401.819 261.176 396.343 261.858C392.464 262.314 388.586 263.905 385.392 266.18C382.427 264.133 379.004 262.996 375.354 262.541C370.335 262.314 365.543 263.678 361.437 266.634L360.524 267.317C357.102 265.27 353.452 264.133 349.345 263.905C345.01 263.905 340.675 265.27 337.025 267.544L327.9 248.213L327.215 247.303C324.249 243.892 320.371 241.39 315.808 240.481C311.473 239.57 306.682 240.025 302.575 241.845C298.469 243.664 295.047 246.848 292.765 250.715C290.483 254.58 289.8 259.129 290.483 263.678V264.815L320.599 329.633L321.968 333.044L321.511 332.589ZM372.388 413.1L363.718 395.36C363.262 393.313 300.294 361.7 291.396 354.423C284.78 348.964 295.047 335.773 307.822 337.593C314.896 338.73 331.55 348.964 334.744 346.917C337.938 344.87 328.356 325.084 328.356 325.084L299.382 261.403C299.153 258.902 299.609 256.627 300.979 254.58C302.119 252.534 303.944 250.942 306.226 249.804C308.507 248.895 310.789 248.44 313.298 248.895C315.579 249.35 317.861 250.487 319.458 252.306L334.744 285.056C335.428 281.873 337.254 278.916 339.763 276.642C342.272 274.368 345.467 273.23 348.889 273.003C351.171 273.23 353.452 273.912 355.506 274.822C357.558 275.959 359.383 277.324 360.753 279.144C360.753 279.144 372.845 262.541 385.164 278.233C391.781 271.41 398.624 268.227 407.066 273.23C425.09 316.669 439.006 335.318 433.759 354.65L445.623 381.259L372.388 413.1Z" fill="#2A2941"/>
<path fill-rule="evenodd" clip-rule="evenodd" d="M358.015 313.486L339.992 273.003L331.55 276.87L349.574 317.352L358.015 313.486Z" fill="#2A2941"/>
<path fill-rule="evenodd" clip-rule="evenodd" d="M382.199 310.074L363.946 268.455L355.277 272.093L373.528 313.713L382.199 310.074Z" fill="#2A2941"/>
<path fill-rule="evenodd" clip-rule="evenodd" d="M399.766 304.16L389.727 281.873L386.305 273.685" fill="#FAA2A2"/>
<path fill-rule="evenodd" clip-rule="evenodd" d="M405.926 306.436L394.062 279.599L388.587 267.318L379.917 270.956L385.392 283.238L397.484 309.847L405.926 306.436Z" fill="#2A2941"/>
</svg>
