<svg width="330" height="330" viewBox="0 0 330 330" fill="none" xmlns="http://www.w3.org/2000/svg">
<g clip-path="url(#clip0_12_3)">
<path d="M264 0H66C29.5492 0 0 29.5492 0 66V264C0 300.451 29.5492 330 66 330H264C300.451 330 330 300.451 330 264V66C330 29.5492 300.451 0 264 0Z" fill="#26102F"/>
<path d="M65 65H157V195H173V65H265V265H249V245H241C241 250.304 238.893 255.391 235.142 259.142C231.391 262.893 226.304 265 221 265H85C79.6957 265 74.6086 262.893 70.8579 259.142C67.1071 255.391 65 250.304 65 245V65Z" fill="#D256DC"/>
</g>
<defs>
<clipPath id="clip0_12_3">
<rect width="330" height="330" fill="white"/>
</clipPath>
</defs>
</svg>
